# xmcd
#
# Track frame offsets:
#	150
#	24241
#	45335
#	66073
#	83563
#	103598
#	128902
#	150892
#	164238
#	185706
#
# Disc length: 2644 seconds
#
# Revision: 1
# Processed by: cddbd v1.5.2PL0 Copyright (c) Steve Scherf et al.
# Submitted via: EZCDAudioConverter 1.3.4.1
#
DISCID=740a520a
DTITLE=Toumani and Sidiki Diabaté - Toumani and Sidiki
DYEAR=2013
DGENRE=
TTITLE0=Hamadoun Toure
TTITLE1=Claudia and Salma
TTITLE2=Rachid Ouiguini
TTITLE3=Toguna Industries
TTITLE4=Lampedusa
TTITLE5=Bagadaji Sirifoula
TTITLE6=Tijaniya
TTITLE7=Dr. Cheikh Modibo Diarra
TTITLE8=A.C.I.2000 Diaby
TTITLE9=Bansang
EXTD=
EXTT0=
EXTT1=
EXTT2=
EXTT3=
EXTT4=
EXTT5=
EXTT6=
EXTT7=
EXTT8=
EXTT9=
PLAYORDER=
